<svg xmlns="http://www.w3.org/2000/svg" xmlns:xlink="http://www.w3.org/1999/xlink" width="40" zoomAndPan="magnify" viewBox="0 0 30 30.000001" height="40" preserveAspectRatio="xMidYMid meet" version="1.0"><defs><clipPath id="f86032db5f"><path d="M 1.089844 0.605469 L 28.671875 0.605469 L 28.671875 28.1875 L 1.089844 28.1875 Z M 1.089844 0.605469 " clip-rule="nonzero"/></clipPath></defs><g clip-path="url(#f86032db5f)"><path fill="#ffffff" d="M 14.878906 0.605469 C 7.296875 0.605469 1.089844 6.8125 1.089844 14.394531 C 1.089844 21.980469 7.296875 28.1875 14.878906 28.1875 C 22.464844 28.1875 28.671875 21.980469 28.671875 14.394531 C 28.671875 6.8125 22.464844 0.605469 14.878906 0.605469 Z M 20.476562 20.472656 C 20.214844 20.472656 20.085938 20.34375 19.828125 20.210938 C 17.878906 19.042969 15.417969 18.398438 12.824219 18.398438 C 11.394531 18.398438 9.839844 18.65625 8.542969 18.914062 C 8.28125 18.914062 8.023438 19.042969 7.894531 19.042969 C 7.375 19.042969 6.984375 18.65625 6.984375 18.136719 C 6.984375 17.617188 7.246094 17.230469 7.765625 17.230469 C 9.449219 16.839844 11.136719 16.582031 12.953125 16.582031 C 15.9375 16.582031 18.660156 17.359375 20.996094 18.65625 C 21.253906 18.917969 21.515625 19.046875 21.515625 19.566406 C 21.253906 20.210938 20.863281 20.472656 20.476562 20.472656 Z M 21.902344 16.839844 C 21.640625 16.839844 21.382812 16.710938 21.121094 16.582031 C 18.917969 15.15625 15.804688 14.375 12.433594 14.375 C 10.746094 14.375 9.1875 14.636719 8.023438 14.894531 C 7.761719 15.023438 7.632812 15.023438 7.375 15.023438 C 6.726562 15.023438 6.335938 14.507812 6.335938 13.988281 C 6.335938 13.339844 6.59375 13.078125 7.242188 12.820312 C 8.800781 12.429688 10.355469 12.039062 12.5625 12.039062 C 16.195312 12.039062 19.566406 12.949219 22.421875 14.632812 C 22.808594 14.894531 23.070312 15.28125 23.070312 15.671875 C 22.9375 16.320312 22.550781 16.839844 21.902344 16.839844 Z M 23.585938 12.6875 C 23.328125 12.6875 23.199219 12.558594 22.808594 12.429688 C 20.214844 11.003906 16.453125 10.09375 12.820312 10.09375 C 11.003906 10.09375 9.058594 10.355469 7.371094 10.742188 C 7.113281 10.742188 6.984375 10.871094 6.59375 10.871094 C 5.816406 11.003906 5.296875 10.355469 5.296875 9.578125 C 5.296875 8.796875 5.6875 8.410156 6.203125 8.277344 C 8.28125 7.761719 10.484375 7.5 12.820312 7.5 C 16.84375 7.5 20.992188 8.410156 24.238281 10.09375 C 24.625 10.355469 25.015625 10.742188 25.015625 11.390625 C 24.886719 12.171875 24.363281 12.6875 23.585938 12.6875 Z M 23.585938 12.6875 " fill-opacity="1" fill-rule="nonzero"/></g></svg>